# xmcd
# Track frame offsets:
# 150
# 14803
# 29497
# 45601
# 59308
# 71977
# 82939
# 99716
# 115616
# 129831
# 140400
# 168219
# 179576
# 192793
# 202755
#
# Disc length: 2859 seconds
# Revision: 3
# Processed by: cddbd v1.5.1PL2 Copyright (c) Steve Scherf et al.
# Submitted via: VisiTrax 2.10.0.248 - For more info visit www.synapsa.com
#
DISCID=cc0b290f
DTITLE=Various Artist - Just Country CD 3
DYEAR=1900
DGENRE=Country
TTITLE0=Jeannie C. Riley - Harper Valley P.T.A.
TTITLE1=Glen Campbell - Rhinestone Cowboy
TTITLE2=Clint Beattie - Clint Beattie - From Where I'm Sitting
TTITLE3=Spears, Billie Jo - Heartaches By The Number
TTITLE4=Tanya Tucker - Daddy And Home
TTITLE5=Willie Nelson - Hello Walls
TTITLE6=James Blundell - Kimberley Moon
TTITLE7=Juice Newton - Lay Back In The Arms Of Someone
TTITLE8=Billy Dean - Billy Dean - Billy The Kid
TTITLE9=Hank Thompson - Left My Gal In The Mountains
TTITLE10=The Bushwackers - And The Band Played Waltzing Matilda
TTITLE11=Sonny James - The Cat Came Back
TTITLE12=Tex Williams - Smoke! Smoke! Smoke! (That Cigarette)
TTITLE13=Ferlin Husky - Sioux City Sue
TTITLE14=Wanda Jackson - Silver Threads And Golden Needles
EXTD=
EXTT0=
EXTT1=
EXTT2=
EXTT3=
EXTT4=
EXTT5=
EXTT6=
EXTT7=
EXTT8=
EXTT9=
EXTT10=
EXTT11=
EXTT12=
EXTT13=
EXTT14=
PLAYORDER=
